# xmcd
#
# Track frame offsets: 
#        150
#        21619
#        41664
#        60245
#        81565
#        104829
#        129529
#        153448
#        172553
#        191112
#        215888
#        238315
#        258353
#        280033
#        296330
#
# Disc length: 4204 seconds
#
# Revision: 0
# Processed by: cddbd v1.5.1PL2 Copyright (c) Steve Scherf et al.
# Submitted via: ExactAudioCopy v0.95b3
#
DISCID=e2106a0f
DTITLE=Curtis Mayfield - Move On Up - The Gold Of Curtis Mayfield CD1
DYEAR=2003
DGENRE=Soul
TTITLE0=Hey Baby (Give It All To Me)
TTITLE1=Still Within Your Heart
TTITLE2=Dirty Laundry
TTITLE3=Nobody But You
TTITLE4=If You Need Me
TTITLE5=What You Gawn Do?
TTITLE6=Summer Hot
TTITLE7=She Don't Let Nobody But Me
TTITLE8=Toot An' Toot An' Toot
TTITLE9=Baby Doll
TTITLE10=Love Is The Place
TTITLE11=Just Ease My Mind
TTITLE12=You Mean Everything To Me
TTITLE13=You Get All My Love
TTITLE14=Come Free Your People
EXTD=
EXTT0=
EXTT1=
EXTT2=
EXTT3=
EXTT4=
EXTT5=
EXTT6=
EXTT7=
EXTT8=
EXTT9=
EXTT10=
EXTT11=
EXTT12=
EXTT13=
EXTT14=
PLAYORDER=
